# xmcd
#
# Track frame offsets:
#	150
#	13066
#	22728
#	45567
#	62049
#	72387
#	92223
#	111758
#	131578
#	142289
#	159336
#
# Disc length: 2246 seconds
#
# Revision: 0
# Processed by: cddbd v1.5.2PL0 Copyright (c) Steve Scherf et al.
# Submitted via: EasyCDDAExtractor 11.1.0.1
#
DISCID=9508c40b
DTITLE=Volatile Baby - Backroads
DYEAR=2007
DGENRE=Country
TTITLE0=Gold Watch And Chain
TTITLE1=Cotton Fields
TTITLE2=Wildwood Flower
TTITLE3=Ring Of Fire
TTITLE4=Get Up Early In The AM
TTITLE5=50 Miles Of Elbow Room
TTITLE6=Troublesome Waters
TTITLE7=You Are My Flower
TTITLE8=I've Endured
TTITLE9=Will The Circle Be Unbroken
TTITLE10=Give Me The Roses While I Live
EXTD=
EXTT0=
EXTT1=
EXTT2=
EXTT3=
EXTT4=
EXTT5=
EXTT6=
EXTT7=
EXTT8=
EXTT9=
EXTT10=
PLAYORDER=
